<svg width="375" height="812" viewBox="0 0 375 812" xmlns="http://www.w3.org/2000/svg">
  <!-- Phone Frame -->
  <rect width="375" height="812" rx="40" fill="#F5F5F5"/>
  
  <!-- Status Bar -->
  <rect width="375" height="44" fill="#FFFFFF"/>
  <text x="20" y="28" font-family="sans-serif" font-size="14" fill="#333">9:41</text>
  <rect x="335" y="18" width="24" height="12" rx="3" fill="none" stroke="#333" stroke-width="1.5"/>
  <rect x="339" y="21" width="16" height="6" fill="#333"/>
  
  <!-- Header -->
  <rect y="44" width="375" height="56" fill="#FFFFFF"/>
  <text x="20" y="78" font-family="sans-serif" font-size="20" font-weight="bold" fill="#333">工作台</text>
  <circle cx="340" cy="72" r="16" fill="#E5E5E5"/>
  <text x="335" y="77" font-family="sans-serif" font-size="14" fill="#666">+</text>
  
  <!-- Content Area - Grid Layout -->
  <g transform="translate(0, 100)">
    <!-- Row 1 -->
    <rect x="30" y="20" width="70" height="80" rx="8" fill="#FFFFFF"/>
    <circle cx="65" cy="50" r="18" fill="#E5E5E5"/>
    <text x="42" y="85" font-family="sans-serif" font-size="12" fill="#333" text-anchor="middle">AI 助手</text>
    
    <rect x="152.5" y="20" width="70" height="80" rx="8" fill="#FFFFFF"/>
    <circle cx="187.5" cy="50" r="18" fill="#E5E5E5"/>
    <text x="187.5" y="85" font-family="sans-serif" font-size="12" fill="#333" text-anchor="middle">考勤打卡</text>
    
    <rect x="275" y="20" width="70" height="80" rx="8" fill="#FFFFFF"/>
    <circle cx="310" cy="50" r="18" fill="#E5E5E5"/>
    <text x="310" y="85" font-family="sans-serif" font-size="12" fill="#333" text-anchor="middle">審批</text>
    
    <!-- Row 2 -->
    <rect x="30" y="120" width="70" height="80" rx="8" fill="#FFFFFF"/>
    <circle cx="65" cy="150" r="18" fill="#E5E5E5"/>
    <text x="65" y="185" font-family="sans-serif" font-size="12" fill="#333" text-anchor="middle">日程</text>
    
    <rect x="152.5" y="120" width="70" height="80" rx="8" fill="#FFFFFF"/>
    <circle cx="187.5" cy="150" r="18" fill="#E5E5E5"/>
    <text x="187.5" y="185" font-family="sans-serif" font-size="12" fill="#333" text-anchor="middle">郵箱</text>
    
    <rect x="275" y="120" width="70" height="80" rx="8" fill="#FFFFFF"/>
    <circle cx="310" cy="150" r="18" fill="#E5E5E5"/>
    <text x="310" y="185" font-family="sans-serif" font-size="12" fill="#333" text-anchor="middle">雲文檔</text>
    
    <!-- Row 3 -->
    <rect x="30" y="220" width="70" height="80" rx="8" fill="#FFFFFF"/>
    <circle cx="65" cy="250" r="18" fill="#E5E5E5"/>
    <text x="65" y="285" font-family="sans-serif" font-size="12" fill="#333" text-anchor="middle">匯報</text>
    
    <rect x="152.5" y="220" width="70" height="80" rx="8" fill="#FFFFFF"/>
    <circle cx="187.5" cy="250" r="18" fill="#E5E5E5"/>
    <text x="187.5" y="285" font-family="sans-serif" font-size="12" fill="#333" text-anchor="middle">會議</text>
    
    <rect x="275" y="220" width="70" height="80" rx="8" fill="#FFFFFF"/>
    <circle cx="310" cy="250" r="18" fill="#E5E5E5"/>
    <text x="310" y="285" font-family="sans-serif" font-size="12" fill="#333" text-anchor="middle">待辦</text>
  </g>
  
  <!-- Tab Bar -->
  <rect y="762" width="375" height="50" fill="#FFFFFF"/>
  <line x1="0" y1="762" x2="375" y2="762" stroke="#E5E5E5" stroke-width="1"/>
  
  <!-- Tabs -->
  <g transform="translate(0, 762)">
    <!-- Tab 1: 消息 -->
    <rect x="7.5" y="8" width="60" height="6" rx="3" fill="#E5E5E5"/>
    <text x="37.5" y="32" font-family="sans-serif" font-size="10" fill="#666" text-anchor="middle">消息</text>
    
    <!-- Tab 2: 文檔 -->
    <circle cx="112.5" cy="11" r="5" fill="#E5E5E5"/>
    <text x="112.5" y="32" font-family="sans-serif" font-size="10" fill="#666" text-anchor="middle">文檔</text>
    
    <!-- Tab 3: 工作台 (Active) -->
    <rect x="157.5" y="8" width="60" height="6" rx="3" fill="#007AFF"/>
    <rect x="175" y="6" width="25" height="10" rx="5" fill="#007AFF"/>
    <text x="187.5" y="32" font-family="sans-serif" font-size="10" fill="#007AFF" text-anchor="middle">工作台</text>
    
    <!-- Tab 4: 通訊錄 -->
    <circle cx="262.5" cy="11" r="5" fill="#E5E5E5"/>
    <circle cx="262.5" cy="11" r="3" fill="none" stroke="#E5E5E5" stroke-width="1"/>
    <text x="262.5" y="32" font-family="sans-serif" font-size="10" fill="#666" text-anchor="middle">通訊錄</text>
    
    <!-- Tab 5: 我的 -->
    <circle cx="337.5" cy="11" r="5" fill="#E5E5E5"/>
    <text x="337.5" y="32" font-family="sans-serif" font-size="10" fill="#666" text-anchor="middle">我的</text>
  </g>
</svg>