<svg width="375" height="812" viewBox="0 0 375 812" xmlns="http://www.w3.org/2000/svg">
  <!-- Phone Frame -->
  <rect width="375" height="812" rx="40" fill="#F5F5F5"/>
  
  <!-- Status Bar -->
  <rect width="375" height="44" fill="#FFFFFF"/>
  <text x="20" y="28" font-family="sans-serif" font-size="14" fill="#333">9:41</text>
  <rect x="335" y="18" width="24" height="12" rx="3" fill="none" stroke="#333" stroke-width="1.5"/>
  <rect x="339" y="21" width="16" height="6" fill="#333"/>
  
  <!-- Header -->
  <rect y="44" width="375" height="56" fill="#FFFFFF"/>
  <text x="20" y="78" font-family="sans-serif" font-size="20" font-weight="bold" fill="#333">工作台</text>
  <circle cx="340" cy="72" r="16" fill="#E5E5E5"/>
  <text x="335" y="77" font-family="sans-serif" font-size="14" fill="#666">+</text>
  
  <!-- Content Area - WeChat Style Grid -->
  <g transform="translate(0, 110)">
    <!-- Row 1 -->
    <rect x="20" y="20" width="335" height="80" rx="8" fill="#FFFFFF"/>
    
    <circle cx="55" cy="50" r="18" fill="#E5E5E5"/>
    <text x="55" y="80" font-family="sans-serif" font-size="12" fill="#333" text-anchor="middle">打卡</text>
    
    <circle cx="142.5" cy="50" r="18" fill="#E5E5E5"/>
    <text x="142.5" y="80" font-family="sans-serif" font-size="12" fill="#333" text-anchor="middle">審批</text>
    
    <circle cx="230" cy="50" r="18" fill="#E5E5E5"/>
    <text x="230" y="80" font-family="sans-serif" font-size="12" fill="#333" text-anchor="middle">匯報</text>
    
    <circle cx="317.5" cy="50" r="18" fill="#E5E5E5"/>
    <text x="317.5" y="80" font-family="sans-serif" font-size="12" fill="#333" text-anchor="middle">日程</text>
    
    <!-- Row 2 -->
    <rect x="20" y="120" width="335" height="80" rx="8" fill="#FFFFFF"/>
    
    <circle cx="55" cy="150" r="18" fill="#E5E5E5"/>
    <text x="55" y="180" font-family="sans-serif" font-size="12" fill="#333" text-anchor="middle">會議</text>
    
    <circle cx="142.5" cy="150" r="18" fill="#E5E5E5"/>
    <text x="142.5" y="180" font-family="sans-serif" font-size="12" fill="#333" text-anchor="middle">文檔</text>
    
    <circle cx="230" cy="150" r="18" fill="#E5E5E5"/>
    <text x="230" y="180" font-family="sans-serif" font-size="12" fill="#333" text-anchor="middle">郵件</text>
    
    <circle cx="317.5" cy="150" r="18" fill="#E5E5E5"/>
    <text x="317.5" y="180" font-family="sans-serif" font-size="12" fill="#333" text-anchor="middle">通知</text>
    
    <!-- Enterprise Apps Section -->
    <text x="20" y="240" font-family="sans-serif" font-size="14" font-weight="bold" fill="#333">企業應用</text>
    
    <rect x="20" y="260" width="335" height="60" rx="8" fill="#FFFFFF"/>
    <circle cx="45" cy="290" r="14" fill="#E5E5E5"/>
    <text x="75" y="288" font-family="sans-serif" font-size="14" fill="#333">客戶朋友圈</text>
    <text x="75" y="304" font-family="sans-serif" font-size="12" fill="#999">企業營銷工具</text>
    
    <rect x="20" y="330" width="335" height="60" rx="8" fill="#FFFFFF"/>
    <circle cx="45" cy="360" r="14" fill="#E5E5E5"/>
    <text x="75" y="358" font-family="sans-serif" font-size="14" fill="#333">活碼</text>
    <text x="75" y="374" font-family="sans-serif" font-size="12" fill="#999">智能客服分配</text>
  </g>
  
  <!-- Tab Bar -->
  <rect y="762" width="375" height="50" fill="#FFFFFF"/>
  <line x1="0" y1="762" x2="375" y2="762" stroke="#E5E5E5" stroke-width="1"/>
  
  <!-- Tabs -->
  <g transform="translate(0, 762)">
    <!-- Tab 1: 消息 -->
    <rect x="18.75" y="8" width="60" height="6" rx="3" fill="#E5E5E5"/>
    <text x="48.75" y="32" font-family="sans-serif" font-size="10" fill="#666" text-anchor="middle">消息</text>
    
    <!-- Tab 2: 通訊錄 -->
    <circle cx="131.25" cy="11" r="5" fill="#E5E5E5"/>
    <circle cx="131.25" cy="11" r="3" fill="none" stroke="#E5E5E5" stroke-width="1"/>
    <text x="131.25" y="32" font-family="sans-serif" font-size="10" fill="#666" text-anchor="middle">通訊錄</text>
    
    <!-- Tab 3: 工作台 (Active) -->
    <rect x="191.25" y="8" width="60" height="6" rx="3" fill="#007AFF"/>
    <rect x="209.25" y="6" width="25" height="10" rx="5" fill="#007AFF"/>
    <text x="221.25" y="32" font-family="sans-serif" font-size="10" fill="#007AFF" text-anchor="middle">工作台</text>
    
    <!-- Tab 4: 我 -->
    <circle cx="306.25" cy="11" r="5" fill="#E5E5E5"/>
    <text x="306.25" y="32" font-family="sans-serif" font-size="10" fill="#666" text-anchor="middle">我</text>
  </g>
</svg>