<svg width="375" height="812" viewBox="0 0 375 812" xmlns="http://www.w3.org/2000/svg">
  <!-- Phone Frame -->
  <rect width="375" height="812" rx="40" fill="#F5F5F5"/>
  
  <!-- Status Bar -->
  <rect width="375" height="44" fill="#FFFFFF"/>
  <text x="20" y="28" font-family="sans-serif" font-size="14" fill="#333">9:41</text>
  <rect x="335" y="18" width="24" height="12" rx="3" fill="none" stroke="#333" stroke-width="1.5"/>
  <rect x="339" y="21" width="16" height="6" fill="#333"/>
  
  <!-- Header -->
  <rect y="44" width="375" height="56" fill="#FFFFFF"/>
  <text x="20" y="78" font-family="sans-serif" font-size="20" font-weight="bold" fill="#333">Home</text>
  <circle cx="340" cy="72" r="16" fill="#E5E5E5"/>
  
  <!-- Content Area - Einstein AI Dashboard -->
  <g transform="translate(0, 100)">
    <!-- Einstein Insights -->
    <rect x="20" y="20" width="335" height="80" rx="8" fill="#FFFFFF"/>
    <circle cx="45" cy="50" r="14" fill="#E5E5E5"/>
    <text x="75" y="48" font-family="sans-serif" font-size="14" font-weight="bold" fill="#333">Einstein 洞察</text>
    <text x="75" y="68" font-family="sans-serif" font-size="12" fill="#666">3 個商機需要立即跟進</text>
    <text x="325" y="60" font-family="sans-serif" font-size="12" fill="#007AFF">查看</text>
    
    <!-- Today's Tasks -->
    <text x="20" y="135" font-family="sans-serif" font-size="14" font-weight="bold" fill="#333">今日任務</text>
    
    <rect x="20" y="150" width="335" height="60" rx="8" fill="#FFFFFF"/>
    <circle cx="30" cy="180" r="4" fill="none" stroke="#E5E5E5" stroke-width="2"/>
    <text x="50" y="178" font-family="sans-serif" font-size="14" fill="#333">跟進 Acme Corp - $250K</text>
    <text x="50" y="194" font-family="sans-serif" font-size="12" fill="#999">下午 3:00 電話會議</text>
    
    <rect x="20" y="220" width="335" height="60" rx="8" fill="#FFFFFF"/>
    <circle cx="30" cy="250" r="4" fill="none" stroke="#E5E5E5" stroke-width="2"/>
    <text x="50" y="248" font-family="sans-serif" font-size="14" fill="#333">更新報價 - Global Solutions</text>
    <text x="50" y="264" font-family="sans-serif" font-size="12" fill="#999">今天截止</text>
    
    <!-- Recent Records -->
    <text x="20" y="315" font-family="sans-serif" font-size="14" font-weight="bold" fill="#333">最近記錄</text>
    
    <rect x="20" y="330" width="335" height="60" rx="8" fill="#FFFFFF"/>
    <circle cx="45" cy="360" r="14" fill="#E5E5E5"/>
    <text x="75" y="358" font-family="sans-serif" font-size="14" fill="#333">TechStart Inc.</text>
    <text x="75" y="374" font-family="sans-serif" font-size="12" fill="#999">商機 • 談判中 • $180K</text>
    
    <rect x="20" y="400" width="335" height="60" rx="8" fill="#FFFFFF"/>
    <circle cx="45" cy="430" r="14" fill="#E5E5E5"/>
    <text x="75" y="428" font-family="sans-serif" font-size="14" fill="#333">Enterprise Co.</text>
    <text x="75" y="444" font-family="sans-serif" font-size="12" fill="#999">客戶 • 進行中 • $500K</text>
    
    <!-- Quick Actions -->
    <rect x="20" y="480" width="335" height="60" rx="8" fill="#FFFFFF"/>
    <text x="187.5" y="515" font-family="sans-serif" font-size="14" fill="#007AFF" text-anchor="middle">+ 新建商機</text>
  </g>
  
  <!-- Tab Bar -->
  <rect y="762" width="375" height="50" fill="#FFFFFF"/>
  <line x1="0" y1="762" x2="375" y2="762" stroke="#E5E5E5" stroke-width="1"/>
  
  <!-- Tabs -->
  <g transform="translate(0, 762)">
    <!-- Tab 1: Home (Active) -->
    <circle cx="37.5" cy="11" r="5" fill="#007AFF"/>
    <text x="37.5" y="32" font-family="sans-serif" font-size="10" fill="#007AFF" text-anchor="middle">Home</text>
    
    <!-- Tab 2: Opportunities -->
    <rect x="82.5" y="6" width="30" height="10" rx="5" fill="#E5E5E5"/>
    <text x="97.5" y="32" font-family="sans-serif" font-size="9" fill="#666" text-anchor="middle">Opps</text>
    
    <!-- Tab 3: Accounts -->
    <circle cx="172.5" cy="11" r="5" fill="#E5E5E5"/>
    <circle cx="172.5" cy="11" r="3" fill="none" stroke="#E5E5E5" stroke-width="1"/>
    <text x="172.5" y="32" font-family="sans-serif" font-size="9" fill="#666" text-anchor="middle">Accounts</text>
    
    <!-- Tab 4: Leads -->
    <rect x="232.5" y="8" width="60" height="6" rx="3" fill="#E5E5E5"/>
    <text x="262.5" y="32" font-family="sans-serif" font-size="10" fill="#666" text-anchor="middle">Leads</text>
    
    <!-- Tab 5: More -->
    <circle cx="337.5" cy="11" r="1.5" fill="#E5E5E5"/>
    <circle cx="337.5" cy="16" r="1.5" fill="#E5E5E5"/>
    <circle cx="337.5" cy="6" r="1.5" fill="#E5E5E5"/>
    <text x="337.5" y="32" font-family="sans-serif" font-size="10" fill="#666" text-anchor="middle">More</text>
  </g>
</svg>