<svg width="375" height="812" viewBox="0 0 375 812" xmlns="http://www.w3.org/2000/svg">
  <!-- Phone Frame -->
  <rect width="375" height="812" rx="40" fill="#F5F5F5"/>
  
  <!-- Status Bar -->
  <rect width="375" height="44" fill="#FFFFFF"/>
  <text x="20" y="28" font-family="sans-serif" font-size="14" fill="#333">9:41</text>
  <rect x="335" y="18" width="24" height="12" rx="3" fill="none" stroke="#333" stroke-width="1.5"/>
  <rect x="339" y="21" width="16" height="6" fill="#333"/>
  
  <!-- Header -->
  <rect y="44" width="375" height="56" fill="#FFFFFF"/>
  <circle cx="45" cy="72" r="16" fill="#E5E5E5"/>
  <text x="75" y="78" font-family="sans-serif" font-size="18" font-weight="bold" fill="#333">工作區</text>
  <circle cx="340" cy="72" r="16" fill="#E5E5E5"/>
  
  <!-- Content Area - Sidebar Style -->
  <g transform="translate(0, 100)">
    <!-- Favorites Section -->
    <text x="20" y="30" font-family="sans-serif" font-size="12" fill="#999">收藏</text>
    
    <rect x="20" y="40" width="335" height="44" rx="6" fill="#FFFFFF"/>
    <text x="30" y="65" font-family="sans-serif" font-size="14" fill="#333">⭐️ 專案管理</text>
    
    <rect x="20" y="90" width="335" height="44" rx="6" fill="#FFFFFF"/>
    <text x="30" y="115" font-family="sans-serif" font-size="14" fill="#333">📝 會議記錄</text>
    
    <!-- Recent Section -->
    <text x="20" y="165" font-family="sans-serif" font-size="12" fill="#999">最近</text>
    
    <rect x="20" y="175" width="335" height="44" rx="6" fill="#FFFFFF"/>
    <text x="30" y="200" font-family="sans-serif" font-size="14" fill="#333">📄 Q1 規劃文件</text>
    
    <rect x="20" y="225" width="335" height="44" rx="6" fill="#FFFFFF"/>
    <text x="30" y="250" font-family="sans-serif" font-size="14" fill="#333">🎯 OKR 追蹤</text>
    
    <rect x="20" y="275" width="335" height="44" rx="6" fill="#FFFFFF"/>
    <text x="30" y="300" font-family="sans-serif" font-size="14" fill="#333">💡 創意收集</text>
    
    <!-- Workspace Section -->
    <text x="20" y="350" font-family="sans-serif" font-size="12" fill="#999">工作區頁面</text>
    
    <rect x="20" y="360" width="335" height="44" rx="6" fill="#FFFFFF"/>
    <text x="30" y="385" font-family="sans-serif" font-size="14" fill="#333">▼ 📁 專案資料夾</text>
    
    <rect x="40" y="410" width="315" height="44" rx="6" fill="#FFFFFF"/>
    <text x="50" y="435" font-family="sans-serif" font-size="14" fill="#666">└─ 專案 A</text>
    
    <rect x="40" y="460" width="315" height="44" rx="6" fill="#FFFFFF"/>
    <text x="50" y="485" font-family="sans-serif" font-size="14" fill="#666">└─ 專案 B</text>
    
    <!-- New Page Button -->
    <rect x="20" y="530" width="335" height="44" rx="6" fill="#FFFFFF"/>
    <text x="30" y="555" font-family="sans-serif" font-size="14" fill="#666">+ 新增頁面</text>
  </g>
  
  <!-- Tab Bar -->
  <rect y="762" width="375" height="50" fill="#FFFFFF"/>
  <line x1="0" y1="762" x2="375" y2="762" stroke="#E5E5E5" stroke-width="1"/>
  
  <!-- Tabs -->
  <g transform="translate(0, 762)">
    <!-- Tab 1: Home (Active) -->
    <circle cx="37.5" cy="11" r="5" fill="#007AFF"/>
    <text x="37.5" y="32" font-family="sans-serif" font-size="10" fill="#007AFF" text-anchor="middle">Home</text>
    
    <!-- Tab 2: Search -->
    <circle cx="112.5" cy="11" r="6" fill="none" stroke="#E5E5E5" stroke-width="1.5"/>
    <line x1="117" y1="15" x2="120" y2="18" stroke="#E5E5E5" stroke-width="1.5"/>
    <text x="112.5" y="32" font-family="sans-serif" font-size="10" fill="#666" text-anchor="middle">Search</text>
    
    <!-- Tab 3: Updates -->
    <circle cx="187.5" cy="11" r="5" fill="#E5E5E5"/>
    <circle cx="190" cy="8" r="2" fill="#007AFF"/>
    <text x="187.5" y="32" font-family="sans-serif" font-size="10" fill="#666" text-anchor="middle">Updates</text>
    
    <!-- Tab 4: Inbox -->
    <rect x="252.5" y="6" width="20" height="14" rx="2" fill="none" stroke="#E5E5E5" stroke-width="1.5"/>
    <text x="262.5" y="32" font-family="sans-serif" font-size="10" fill="#666" text-anchor="middle">Inbox</text>
    
    <!-- Tab 5: More -->
    <circle cx="337.5" cy="6" r="1.5" fill="#E5E5E5"/>
    <circle cx="337.5" cy="11" r="1.5" fill="#E5E5E5"/>
    <circle cx="337.5" cy="16" r="1.5" fill="#E5E5E5"/>
    <text x="337.5" y="32" font-family="sans-serif" font-size="10" fill="#666" text-anchor="middle">More</text>
  </g>
</svg>