<svg width="375" height="812" viewBox="0 0 375 812" xmlns="http://www.w3.org/2000/svg">
  <!-- Phone Frame -->
  <rect width="375" height="812" rx="40" fill="#FFFFFF"/>
  
  <!-- Status Bar -->
  <rect width="375" height="44" fill="#FFFFFF"/>
  <text x="20" y="28" font-family="sans-serif" font-size="14" fill="#333">9:41</text>
  <rect x="335" y="18" width="24" height="12" rx="3" fill="none" stroke="#333" stroke-width="1.5"/>
  <rect x="339" y="21" width="16" height="6" fill="#333"/>
  
  <!-- Header - Minimalist -->
  <rect y="44" width="375" height="56" fill="#FFFFFF"/>
  <text x="20" y="78" font-family="sans-serif" font-size="20" font-weight="300" fill="#333">My Issues</text>
  <circle cx="340" cy="72" r="16" fill="#F5F5F5"/>
  <text x="335" y="77" font-family="sans-serif" font-size="14" fill="#666">+</text>
  
  <!-- Content Area - Minimalist Issue List -->
  <g transform="translate(0, 100)">
    <!-- Filter Pills -->
    <rect x="20" y="10" width="60" height="24" rx="12" fill="#F5F5F5"/>
    <text x="50" y="26" font-family="sans-serif" font-size="11" fill="#333" text-anchor="middle">全部</text>
    
    <rect x="90" y="10" width="70" height="24" rx="12" fill="#F5F5F5"/>
    <text x="125" y="26" font-family="sans-serif" font-size="11" fill="#666" text-anchor="middle">進行中</text>
    
    <rect x="170" y="10" width="60" height="24" rx="12" fill="#F5F5F5"/>
    <text x="200" y="26" font-family="sans-serif" font-size="11" fill="#666" text-anchor="middle">待辦</text>
    
    <!-- Issue Item 1 -->
    <g transform="translate(0, 60)">
      <line x1="20" y1="0" x2="355" y2="0" stroke="#F5F5F5" stroke-width="1"/>
      <text x="20" y="30" font-family="sans-serif" font-size="14" font-weight="300" fill="#333">PRD-123</text>
      <text x="90" y="30" font-family="sans-serif" font-size="14" fill="#333">完成用戶認證流程</text>
      <circle cx="340" cy="26" r="4" fill="#007AFF"/>
    </g>
    
    <!-- Issue Item 2 -->
    <g transform="translate(0, 120)">
      <line x1="20" y1="0" x2="355" y2="0" stroke="#F5F5F5" stroke-width="1"/>
      <text x="20" y="30" font-family="sans-serif" font-size="14" font-weight="300" fill="#333">PRD-124</text>
      <text x="90" y="30" font-family="sans-serif" font-size="14" fill="#333">修復付款頁面 Bug</text>
      <circle cx="340" cy="26" r="4" fill="#E5E5E5"/>
    </g>
    
    <!-- Issue Item 3 -->
    <g transform="translate(0, 180)">
      <line x1="20" y1="0" x2="355" y2="0" stroke="#F5F5F5" stroke-width="1"/>
      <text x="20" y="30" font-family="sans-serif" font-size="14" font-weight="300" fill="#333">PRD-125</text>
      <text x="90" y="30" font-family="sans-serif" font-size="14" fill="#333">優化載入性能</text>
      <circle cx="340" cy="26" r="4" fill="#007AFF"/>
    </g>
    
    <!-- Issue Item 4 -->
    <g transform="translate(0, 240)">
      <line x1="20" y1="0" x2="355" y2="0" stroke="#F5F5F5" stroke-width="1"/>
      <text x="20" y="30" font-family="sans-serif" font-size="14" font-weight="300" fill="#333">PRD-126</text>
      <text x="90" y="30" font-family="sans-serif" font-size="14" fill="#333">設計新的 Dashboard</text>
      <circle cx="340" cy="26" r="4" fill="#E5E5E5"/>
    </g>
    
    <!-- Issue Item 5 -->
    <g transform="translate(0, 300)">
      <line x1="20" y1="0" x2="355" y2="0" stroke="#F5F5F5" stroke-width="1"/>
      <text x="20" y="30" font-family="sans-serif" font-size="14" font-weight="300" fill="#333">PRD-127</text>
      <text x="90" y="30" font-family="sans-serif" font-size="14" fill="#333">API 文檔更新</text>
      <circle cx="340" cy="26" r="4" fill="#E5E5E5"/>
    </g>
    
    <!-- Issue Item 6 -->
    <g transform="translate(0, 360)">
      <line x1="20" y1="0" x2="355" y2="0" stroke="#F5F5F5" stroke-width="1"/>
      <text x="20" y="30" font-family="sans-serif" font-size="14" font-weight="300" fill="#333">PRD-128</text>
      <text x="90" y="30" font-family="sans-serif" font-size="14" fill="#333">資料庫遷移計畫</text>
      <circle cx="340" cy="26" r="4" fill="#66BB6A"/>
    </g>
    
    <!-- Issue Item 7 -->
    <g transform="translate(0, 420)">
      <line x1="20" y1="0" x2="355" y2="0" stroke="#F5F5F5" stroke-width="1"/>
      <text x="20" y="30" font-family="sans-serif" font-size="14" font-weight="300" fill="#333">PRD-129</text>
      <text x="90" y="30" font-family="sans-serif" font-size="14" fill="#333">多語言支援實作</text>
      <circle cx="340" cy="26" r="4" fill="#E5E5E5"/>
    </g>
    
    <!-- Bottom Line -->
    <line x1="20" y1="480" x2="355" y2="480" stroke="#F5F5F5" stroke-width="1"/>
  </g>
  
  <!-- Tab Bar -->
  <rect y="762" width="375" height="50" fill="#FFFFFF"/>
  <line x1="0" y1="762" x2="375" y2="762" stroke="#E5E5E5" stroke-width="1"/>
  
  <!-- Tabs - Minimalist -->
  <g transform="translate(0, 762)">
    <!-- Tab 1: Inbox -->
    <rect x="18.75" y="6" width="20" height="14" rx="2" fill="none" stroke="#E5E5E5" stroke-width="1.5"/>
    <text x="48.75" y="32" font-family="sans-serif" font-size="10" font-weight="300" fill="#666" text-anchor="middle">Inbox</text>
    
    <!-- Tab 2: My Issues (Active) -->
    <circle cx="131.25" cy="11" r="4" fill="none" stroke="#007AFF" stroke-width="2"/>
    <line x1="129.5" y1="11" x2="132.5" y2="14" stroke="#007AFF" stroke-width="2"/>
    <text x="131.25" y="32" font-family="sans-serif" font-size="10" font-weight="300" fill="#007AFF" text-anchor="middle">My Issues</text>
    
    <!-- Tab 3: Teams -->
    <circle cx="221.25" cy="11" r="5" fill="#E5E5E5"/>
    <circle cx="221.25" cy="8" r="2" fill="#E5E5E5"/>
    <circle cx="218" cy="14" r="2" fill="#E5E5E5"/>
    <circle cx="224.5" cy="14" r="2" fill="#E5E5E5"/>
    <text x="221.25" y="32" font-family="sans-serif" font-size="10" font-weight="300" fill="#666" text-anchor="middle">Teams</text>
    
    <!-- Tab 4: Projects -->
    <rect x="296.25" y="6" width="30" height="10" rx="2" fill="#E5E5E5"/>
    <text x="306.25" y="32" font-family="sans-serif" font-size="10" font-weight="300" fill="#666" text-anchor="middle">Projects</text>
  </g>
</svg>