<svg width="375" height="812" viewBox="0 0 375 812" xmlns="http://www.w3.org/2000/svg">
  <!-- Phone Frame -->
  <rect width="375" height="812" rx="40" fill="#F5F5F5"/>
  
  <!-- Status Bar -->
  <rect width="375" height="44" fill="#FFFFFF"/>
  <text x="20" y="28" font-family="sans-serif" font-size="14" fill="#333">9:41</text>
  <rect x="335" y="18" width="24" height="12" rx="3" fill="none" stroke="#333" stroke-width="1.5"/>
  <rect x="339" y="21" width="16" height="6" fill="#333"/>
  
  <!-- Header -->
  <rect y="44" width="375" height="56" fill="#FFFFFF"/>
  <text x="20" y="78" font-family="sans-serif" font-size="20" font-weight="bold" fill="#333">Aurotek Portal</text>
  <circle cx="340" cy="72" r="16" fill="#E5E5E5"/>
  
  <!-- Content Area - Dashboard -->
  <g transform="translate(0, 110)">
    <!-- Performance Cards -->
    <rect x="20" y="0" width="160" height="100" rx="8" fill="#FFFFFF"/>
    <text x="30" y="25" font-family="sans-serif" font-size="12" fill="#666">本月業績</text>
    <text x="30" y="55" font-family="sans-serif" font-size="24" font-weight="bold" fill="#007AFF">$2.4M</text>
    <text x="30" y="80" font-family="sans-serif" font-size="12" fill="#999">達成率 80%</text>
    <text x="30" y="95" font-family="sans-serif" font-size="11" fill="#66BB6A">▲ +12%</text>
    
    <rect x="195" y="0" width="160" height="100" rx="8" fill="#FFFFFF"/>
    <text x="205" y="25" font-family="sans-serif" font-size="12" fill="#666">案件數</text>
    <text x="205" y="55" font-family="sans-serif" font-size="24" font-weight="bold" fill="#007AFF">12</text>
    <text x="205" y="80" font-family="sans-serif" font-size="12" fill="#999">進行中 8 個</text>
    <text x="205" y="95" font-family="sans-serif" font-size="11" fill="#666">待跟進 3 個</text>
    
    <!-- Quick Actions -->
    <text x="20" y="140" font-family="sans-serif" font-size="14" font-weight="bold" fill="#333">快捷入口</text>
    
    <rect x="20" y="155" width="100" height="70" rx="8" fill="#FFFFFF"/>
    <circle cx="70" cy="180" r="14" fill="#007AFF"/>
    <text x="70" y="185" font-family="sans-serif" font-size="16" fill="#FFFFFF" text-anchor="middle">+</text>
    <text x="70" y="215" font-family="sans-serif" font-size="12" fill="#333" text-anchor="middle">新增報價</text>
    
    <rect x="137.5" y="155" width="100" height="70" rx="8" fill="#FFFFFF"/>
    <circle cx="187.5" cy="180" r="14" fill="#E5E5E5"/>
    <text x="187.5" y="215" font-family="sans-serif" font-size="12" fill="#333" text-anchor="middle">逐字稿</text>
    
    <rect x="255" y="155" width="100" height="70" rx="8" fill="#FFFFFF"/>
    <circle cx="305" cy="180" r="14" fill="#E5E5E5"/>
    <text x="305" y="215" font-family="sans-serif" font-size="12" fill="#333" text-anchor="middle">AI 助手</text>
    
    <!-- To-Do List -->
    <text x="20" y="265" font-family="sans-serif" font-size="14" font-weight="bold" fill="#333">待處理案件</text>
    
    <rect x="20" y="280" width="335" height="60" rx="8" fill="#FFFFFF"/>
    <circle cx="30" cy="310" r="4" fill="none" stroke="#E5E5E5" stroke-width="2"/>
    <text x="50" y="305" font-family="sans-serif" font-size="14" fill="#333">華為科技 - 報價中</text>
    <text x="50" y="322" font-family="sans-serif" font-size="12" fill="#999">金額 $350K • 今天跟進</text>
    <circle cx="325" cy="310" r="8" fill="#007AFF"/>
    <text x="325" y="314" font-family="sans-serif" font-size="10" fill="#FFFFFF" text-anchor="middle">!</text>
    
    <rect x="20" y="350" width="335" height="60" rx="8" fill="#FFFFFF"/>
    <circle cx="30" cy="380" r="4" fill="none" stroke="#E5E5E5" stroke-width="2"/>
    <text x="50" y="375" font-family="sans-serif" font-size="14" fill="#333">台達電 - 待簽約</text>
    <text x="50" y="392" font-family="sans-serif" font-size="12" fill="#999">金額 $280K • 明天會議</text>
    
    <rect x="20" y="420" width="335" height="60" rx="8" fill="#FFFFFF"/>
    <circle cx="30" cy="450" r="4" fill="none" stroke="#E5E5E5" stroke-width="2"/>
    <text x="50" y="445" font-family="sans-serif" font-size="14" fill="#333">中華電信 - 需求評估</text>
    <text x="50" y="462" font-family="sans-serif" font-size="12" fill="#999">金額 $420K • 下週提案</text>
    
    <!-- Performance Trend -->
    <text x="20" y="520" font-family="sans-serif" font-size="14" font-weight="bold" fill="#333">業績趨勢</text>
    
    <rect x="20" y="535" width="335" height="110" rx="8" fill="#FFFFFF"/>
    <!-- Simple Chart -->
    <polyline points="40,615 80,600 120,610 160,590 200,595 240,580 280,590 320,575" 
              fill="none" stroke="#007AFF" stroke-width="2"/>
    <circle cx="320" cy="575" r="4" fill="#007AFF"/>
    <text x="40" y="635" font-family="sans-serif" font-size="10" fill="#999">1月</text>
    <text x="160" y="635" font-family="sans-serif" font-size="10" fill="#999">4月</text>
    <text x="280" y="635" font-family="sans-serif" font-size="10" fill="#999">6月</text>
    <text x="240" y="565" font-family="sans-serif" font-size="12" font-weight="bold" fill="#007AFF">$2.4M</text>
  </g>
  
  <!-- Tab Bar -->
  <rect y="762" width="375" height="50" fill="#FFFFFF"/>
  <line x1="0" y1="762" x2="375" y2="762" stroke="#E5E5E5" stroke-width="1"/>
  
  <!-- Tabs -->
  <g transform="translate(0, 762)">
    <!-- Tab 1: 首頁 (Active) -->
    <circle cx="48.75" cy="11" r="5" fill="#007AFF"/>
    <text x="48.75" y="32" font-family="sans-serif" font-size="10" fill="#007AFF" text-anchor="middle">首頁</text>
    
    <!-- Tab 2: 案件 -->
    <rect x="116.25" y="6" width="30" height="10" rx="5" fill="#E5E5E5"/>
    <text x="146.25" y="32" font-family="sans-serif" font-size="10" fill="#666" text-anchor="middle">案件</text>
    
    <!-- Tab 3: 資源 -->
    <rect x="191.25" y="6" width="20" height="14" rx="2" fill="none" stroke="#E5E5E5" stroke-width="1.5"/>
    <line x1="194.25" y1="11" x2="208.25" y2="11" stroke="#E5E5E5" stroke-width="1.5"/>
    <line x1="194.25" y1="15" x2="208.25" y2="15" stroke="#E5E5E5" stroke-width="1.5"/>
    <text x="221.25" y="32" font-family="sans-serif" font-size="10" fill="#666" text-anchor="middle">資源</text>
    
    <!-- Tab 4: 我的 -->
    <circle cx="306.25" cy="11" r="5" fill="#E5E5E5"/>
    <text x="306.25" y="32" font-family="sans-serif" font-size="10" fill="#666" text-anchor="middle">我的</text>
  </g>
</svg>